<?xml version="1.0" encoding="utf-8"?>
<!-- Generator: Adobe Illustrator 22.1.0, SVG Export Plug-In . SVG Version: 6.00 Build 0)  -->
<svg version="1.1" id="Lager_1" xmlns="http://www.w3.org/2000/svg" xmlns:xlink="http://www.w3.org/1999/xlink" x="0px" y="0px"
	 viewBox="0 0 1366 768" style="enable-background:new 0 0 1366 768;" xml:space="preserve">
<style type="text/css">
	.st0{fill:#770303;}
	.st1{fill:#682929;}
	.st2{fill:#331414;}
	.st3{fill:#E3E810;}
</style>
<g>
	<polygon class="st0" points="687.8,494.3 556,495 424.2,494.3 424.2,368 556,304.8 687.8,368 	"/>
</g>
<g>
	<polygon class="st0" points="688,494.2 820,410.2 820,309 688,370.2 	"/>
</g>
<g>
	<polygon class="st1" points="549.7,288.5 399.6,375.2 408.6,390.8 549.3,309.8 	"/>
</g>
<g>
	<polygon class="st2" points="683,233 548.6,289.2 715,384 832,316 	"/>
</g>
<g>
	<polygon class="st1" points="714.9,384.2 549.6,288.7 549,310 714,400 	"/>
</g>
<g>
	<polygon class="st1" points="831,315 714.1,384.7 714,400 830.7,333.2 	"/>
</g>
<g>
	<rect x="466" y="397.7" class="st3" width="41" height="46.7"/>
</g>
<g>
	<polygon class="st1" points="469.8,401.4 507,401.4 507,397.7 466,397.7 466,444.3 469.8,444.3 	"/>
</g>
<g>
	<rect x="567" y="397.7" class="st3" width="41" height="46.7"/>
</g>
<g>
	<polygon class="st1" points="570.8,401.4 608,401.4 608,397.7 567,397.7 567,444.3 570.8,444.3 	"/>
</g>
</svg>
