<?xml version="1.0" encoding="utf-8"?>
<!-- Generator: Adobe Illustrator 22.1.0, SVG Export Plug-In . SVG Version: 6.00 Build 0)  -->
<svg version="1.1" id="Lager_1" xmlns="http://www.w3.org/2000/svg" xmlns:xlink="http://www.w3.org/1999/xlink" x="0px" y="0px"
	 viewBox="0 0 1366 768" style="enable-background:new 0 0 1366 768;" xml:space="preserve">
<style type="text/css">
	.st0{fill:#666666;}
	.st1{fill:#8C8C8C;}
	.st2{fill:#C9C8C7;}
</style>
<g>
	<polygon class="st0" points="721,471.6 769.3,397 861.6,399.4 905.5,476.4 857.2,551 765,548.6 	"/>
</g>
<g>
	<polygon class="st1" points="856.7,518.7 794.6,519 763.2,468.1 793.9,416.9 856.1,416.6 887.5,467.5 	"/>
</g>
<g>
	<polygon class="st2" points="858.1,497.3 820,497.5 800.8,466.3 819.6,434.9 857.7,434.7 877,465.9 	"/>
</g>
<g>
	<polygon class="st0" points="716.8,275.2 798.4,243.5 866.6,298.3 853.2,384.8 771.6,416.5 703.4,361.7 	"/>
</g>
<g>
	<polygon class="st1" points="790.8,390.5 743.6,355.1 750.7,296.6 805,273.5 852.1,308.9 845,367.4 	"/>
</g>
<g>
	<polygon class="st2" points="804.8,374.3 775.9,352.6 780.2,316.7 813.4,302.5 842.4,324.2 838,360.1 	"/>
</g>
<g>
	<polygon class="st0" points="635,492.1 701.6,444 775.9,478.5 783.6,561 717.1,609.2 642.8,574.7 	"/>
</g>
<g>
	<polygon class="st1" points="728.4,580.8 677.7,559.3 670.6,503.9 714.4,470 765.2,491.5 772.2,546.9 	"/>
</g>
<g>
	<polygon class="st2" points="737.4,562.7 706.2,549.5 701.9,515.5 728.8,494.7 759.9,507.9 764.2,541.9 	"/>
</g>
<g>
	<polygon class="st0" points="484.9,566.1 390.7,403 484.9,239.9 673.1,239.9 767.3,403 673.1,566.1 	"/>
</g>
<g>
	<polygon class="st1" points="705.7,370.8 646,482.7 519.3,486.8 452.3,379.2 512,267.3 638.7,263.2 	"/>
</g>
<g>
	<polygon class="st2" points="666.7,346.4 630.1,415 552.4,417.6 511.3,351.6 547.9,283 625.6,280.4 	"/>
</g>
</svg>
