<?xml version="1.0" encoding="utf-8"?>
<!-- Generator: Adobe Illustrator 22.1.0, SVG Export Plug-In . SVG Version: 6.00 Build 0)  -->
<svg version="1.1" id="Lager_1" xmlns="http://www.w3.org/2000/svg" xmlns:xlink="http://www.w3.org/1999/xlink" x="0px" y="0px"
	 viewBox="0 0 1366 768" style="enable-background:new 0 0 1366 768;" xml:space="preserve">
<style type="text/css">
	.st0{fill:#823C08;}
	.st1{fill:#559975;}
	.st2{fill:#FFFFFF;}
	.st3{fill:#5BBC8B;}
</style>
<path class="st0" d="M632,612c0,50-102,49-102,0V376h102V612z"/>
<g>
	<ellipse class="st1" cx="557.5" cy="196" rx="76.5" ry="77"/>
</g>
<g>
	<ellipse class="st2" cx="682.5" cy="269" rx="109.5" ry="96"/>
</g>
<g>
	<ellipse class="st1" cx="666.5" cy="284" rx="109.5" ry="120"/>
</g>
<g>
	<ellipse class="st1" cx="529.5" cy="340" rx="109.5" ry="96"/>
</g>
<g>
	<ellipse class="st3" cx="728.5" cy="399" rx="76.5" ry="77"/>
</g>
<g>
	<ellipse class="st3" cx="593.5" cy="436" rx="76.5" ry="77"/>
</g>
<g>
	<ellipse class="st3" cx="776.5" cy="308" rx="76.5" ry="77"/>
</g>
<g>
	<ellipse class="st3" cx="516.5" cy="418" rx="76.5" ry="77"/>
</g>
<g>
	<path class="st1" d="M489,410c0,42.5-34.3,77-76.5,77S334,451.5,334,409s36.3-76,78.5-76S489,367.5,489,410z"/>
</g>
<g>
	<ellipse class="st3" cx="522.5" cy="462" rx="76.5" ry="77"/>
</g>
<g>
	<ellipse class="st3" cx="675.5" cy="476" rx="76.5" ry="77"/>
</g>
<g>
	<ellipse class="st1" cx="425.5" cy="308" rx="76.5" ry="77"/>
</g>
<g>
	<g>
		<path class="st1" d="M612,353.5c1.9,0,1.9-3,0-3C610.1,350.5,610.1,353.5,612,353.5L612,353.5z"/>
	</g>
</g>
<g>
	<ellipse class="st1" cx="638.5" cy="371" rx="76.5" ry="77"/>
</g>
<g>
	<ellipse class="st3" cx="522.5" cy="322" rx="109.5" ry="96"/>
</g>
<g>
	<ellipse class="st3" cx="464.5" cy="241" rx="76.5" ry="77"/>
</g>
</svg>
