<?xml version="1.0" encoding="utf-8"?>
<!-- Generator: Adobe Illustrator 22.1.0, SVG Export Plug-In . SVG Version: 6.00 Build 0)  -->
<svg version="1.1" id="Lager_1" xmlns="http://www.w3.org/2000/svg" xmlns:xlink="http://www.w3.org/1999/xlink" x="0px" y="0px"
	 viewBox="0 0 1366 768" style="enable-background:new 0 0 1366 768;" xml:space="preserve">
<style type="text/css">
	.st0{fill:#8094AA;}
	.st1{fill:#374049;}
	.st2{fill:#F40000;}
	.st3{fill:#65ADEF;}
	.st4{fill:#FFFF00;}
</style>
<g>
	<rect x="498.8" y="561.9" class="st0" width="124.7" height="20.1"/>
	<polygon class="st1" points="623.5,526 498.8,561.9 498.8,561.9 623.5,561.9 	"/>
</g>
<g>
	
		<rect x="753" y="561.9" transform="matrix(-1 -7.980340e-11 7.980340e-11 -1 1630.6735 1143.9246)" class="st0" width="124.7" height="20.1"/>
	<polygon class="st1" points="753,526 877.7,561.9 877.7,561.9 753,561.9 	"/>
</g>
<g>
	<g>
		<ellipse class="st2" cx="500.7" cy="405.2" rx="6.8" ry="7.2"/>
		<path class="st1" d="M482.3,487.1H518l-10.5-81.3c-5.3-2.4-9.8-2.4-13.7,0L482.3,487.1z"/>
		<g>
			<g>
				
					<rect x="491.2" y="516.4" transform="matrix(2.559791e-12 -1 1 2.559791e-12 -18.2955 1019.4705)" class="st0" width="18.8" height="5"/>
			</g>
			
				<rect x="490.8" y="457.3" transform="matrix(2.511830e-12 -1 1 2.511830e-12 40.4158 959.9327)" class="st0" width="18.8" height="5"/>
			<g>
				<polyline class="st1" points="517.9,486.3 535.7,491.5 535.7,491.5 517.9,491.5 				"/>
				<polyline class="st0" points="517.9,491.5 535.7,491.5 535.7,496.8 517.9,496.8 				"/>
			</g>
			<g>
				<polygon class="st1" points="464.6,491.1 482.4,491.1 482.4,485.8 464.6,491.1 				"/>
				
					<rect x="464.6" y="491.1" transform="matrix(-1 -4.484159e-11 4.484159e-11 -1 947.0463 987.4007)" class="st0" width="17.8" height="5.3"/>
			</g>
			<ellipse class="st1" cx="500.6" cy="486.7" rx="19.8" ry="22.3"/>
			<ellipse class="st0" cx="500.6" cy="491.9" rx="19.8" ry="22.3"/>
			<ellipse cx="500.8" cy="492.6" rx="13.4" ry="16.6"/>
		</g>
	</g>
	<g>
		<ellipse class="st2" cx="407.4" cy="421.4" rx="6.8" ry="6.4"/>
		<path class="st1" d="M389,493.8h35.7l-10.5-71.9c-5.3-2.1-9.8-2.1-13.7,0L389,493.8z"/>
		<g>
			<g>
				
					<rect x="398.9" y="519.5" transform="matrix(-3.001982e-12 -1 1 -3.001982e-12 -114.6888 929.2452)" class="st0" width="16.7" height="5"/>
			</g>
			
				<rect x="398.5" y="467.2" transform="matrix(-3.056161e-12 -1 1 -3.056161e-12 -62.7839 876.5139)" class="st0" width="16.7" height="5"/>
			<g>
				<polyline class="st1" points="424.6,493.1 442.4,497.7 442.4,497.7 424.6,497.7 				"/>
				<polyline class="st0" points="424.6,497.7 442.4,497.7 442.4,502.4 424.6,502.4 				"/>
			</g>
			<g>
				<polygon class="st1" points="371.3,497.4 389.1,497.4 389.1,492.7 371.3,497.4 				"/>
				
					<rect x="371.3" y="497.4" transform="matrix(-1 -4.484159e-11 4.484159e-11 -1 760.4277 999.3667)" class="st0" width="17.8" height="4.7"/>
			</g>
			<ellipse class="st1" cx="407.3" cy="493.5" rx="19.8" ry="19.8"/>
			<ellipse class="st0" cx="407.3" cy="498.1" rx="19.8" ry="19.8"/>
			<ellipse cx="407.5" cy="498.7" rx="13.4" ry="14.7"/>
		</g>
	</g>
	<g>
		<ellipse class="st2" cx="323.6" cy="435.5" rx="6.8" ry="5.5"/>
		<path class="st1" d="M305.2,497.9h35.7l-10.5-62c-5.3-1.8-9.8-1.8-13.7,0L305.2,497.9z"/>
		<g>
			<g>
				
					<rect x="316.3" y="519.6" transform="matrix(-1.064653e-11 -1 1 -1.064653e-11 -198.6752 845.5712)" class="st0" width="14.4" height="5"/>
			</g>
			
				<rect x="315.9" y="474.6" transform="matrix(-1.077354e-11 -1 1 -1.077354e-11 -154.0305 800.1001)" class="st0" width="14.4" height="5"/>
			<g>
				<polyline class="st1" points="340.8,497.3 358.6,501.3 358.6,501.3 340.8,501.3 				"/>
				<polyline class="st0" points="340.8,501.3 358.6,501.3 358.6,505.3 340.8,505.3 				"/>
			</g>
			<g>
				<polygon class="st1" points="287.5,500.9 305.3,500.9 305.3,496.9 287.5,500.9 				"/>
				
					<rect x="287.5" y="500.9" transform="matrix(-1 -4.484159e-11 4.484159e-11 -1 592.7674 1005.8638)" class="st0" width="17.8" height="4"/>
			</g>
			<ellipse class="st1" cx="323.4" cy="497.6" rx="19.8" ry="17"/>
			<ellipse class="st0" cx="323.4" cy="501.6" rx="19.8" ry="17"/>
			<ellipse cx="323.7" cy="502.1" rx="13.4" ry="12.6"/>
		</g>
	</g>
	<g>
		<rect x="284" y="445.5" class="st0" width="342.5" height="31"/>
		<polygon class="st1" points="626.5,390 284,445.5 284,445.5 626.5,445.5 		"/>
	</g>
</g>
<g>
	<g>
		<ellipse class="st2" cx="872.8" cy="405.2" rx="6.8" ry="7.2"/>
		<path class="st1" d="M891.2,487.1h-35.7l10.5-81.3c5.3-2.4,9.8-2.4,13.7,0L891.2,487.1z"/>
		<g>
			<g>
				
					<rect x="863.5" y="516.4" transform="matrix(4.230578e-11 -1 1 4.230578e-11 354.0295 1391.7955)" class="st0" width="18.8" height="5"/>
			</g>
			
				<rect x="863.9" y="457.3" transform="matrix(4.240259e-11 -1 1 4.240259e-11 413.5672 1333.0842)" class="st0" width="18.8" height="5"/>
			<g>
				<polyline class="st1" points="855.6,486.3 837.8,491.5 837.8,491.5 855.6,491.5 				"/>
				<polyline class="st0" points="855.6,491.5 837.8,491.5 837.8,496.8 855.6,496.8 				"/>
			</g>
			<g>
				<polygon class="st1" points="908.9,491.1 891.1,491.1 891.1,485.8 908.9,491.1 				"/>
				<rect x="891.1" y="491.1" class="st0" width="17.8" height="5.3"/>
			</g>
			<ellipse class="st1" cx="872.9" cy="486.7" rx="19.8" ry="22.3"/>
			<ellipse class="st0" cx="872.9" cy="491.9" rx="19.8" ry="22.3"/>
			<ellipse cx="872.7" cy="492.6" rx="13.4" ry="16.6"/>
		</g>
	</g>
	<g>
		<ellipse class="st2" cx="966.1" cy="421.4" rx="6.8" ry="6.4"/>
		<path class="st1" d="M984.5,493.8h-35.7l10.5-71.9c5.3-2.1,9.8-2.1,13.7,0L984.5,493.8z"/>
		<g>
			<g>
				
					<rect x="957.9" y="519.5" transform="matrix(4.791906e-11 -1 1 4.791906e-11 444.2548 1488.1888)" class="st0" width="16.7" height="5"/>
			</g>
			
				<rect x="958.3" y="467.2" transform="matrix(4.791906e-11 -1 1 4.791906e-11 496.9861 1436.2839)" class="st0" width="16.7" height="5"/>
			<g>
				<polyline class="st1" points="948.9,493.1 931.1,497.7 931.1,497.7 948.9,497.7 				"/>
				<polyline class="st0" points="948.9,497.7 931.1,497.7 931.1,502.4 948.9,502.4 				"/>
			</g>
			<g>
				<polygon class="st1" points="1002.2,497.4 984.4,497.4 984.4,492.7 1002.2,497.4 				"/>
				<rect x="984.4" y="497.4" class="st0" width="17.8" height="4.7"/>
			</g>
			<ellipse class="st1" cx="966.2" cy="493.5" rx="19.8" ry="19.8"/>
			<ellipse class="st0" cx="966.2" cy="498.1" rx="19.8" ry="19.8"/>
			<ellipse cx="966" cy="498.7" rx="13.4" ry="14.7"/>
		</g>
	</g>
	<g>
		<ellipse class="st2" cx="1049.9" cy="435.5" rx="6.8" ry="5.5"/>
		<path class="st1" d="M1068.3,497.9h-35.7l10.5-62c5.3-1.8,9.8-1.8,13.7,0L1068.3,497.9z"/>
		<g>
			<g>
				
					<rect x="1042.9" y="519.6" transform="matrix(5.551388e-11 -1 1 5.551388e-11 527.9288 1572.1752)" class="st0" width="14.4" height="5"/>
			</g>
			
				<rect x="1043.3" y="474.6" transform="matrix(5.564000e-11 -1 1 5.564000e-11 573.3999 1527.5305)" class="st0" width="14.4" height="5"/>
			<g>
				<polyline class="st1" points="1032.7,497.3 1014.9,501.3 1014.9,501.3 1032.7,501.3 				"/>
				<polyline class="st0" points="1032.7,501.3 1014.9,501.3 1014.9,505.3 1032.7,505.3 				"/>
			</g>
			<g>
				<polygon class="st1" points="1086,500.9 1068.2,500.9 1068.2,496.9 1086,500.9 				"/>
				<rect x="1068.2" y="500.9" class="st0" width="17.8" height="4"/>
			</g>
			<ellipse class="st1" cx="1050.1" cy="497.6" rx="19.8" ry="17"/>
			<ellipse class="st0" cx="1050.1" cy="501.6" rx="19.8" ry="17"/>
			<ellipse cx="1049.8" cy="502.1" rx="13.4" ry="12.6"/>
		</g>
	</g>
	
		<rect x="747" y="445.5" transform="matrix(-1 -4.489843e-11 4.489843e-11 -1 1836.5 921.9905)" class="st0" width="342.5" height="31"/>
	<polygon class="st1" points="747,390 1089.5,445.5 1089.5,445.5 747,445.5 	"/>
</g>
<path class="st0" d="M768.3,651c-57.3-9.1-108.9-7.9-156.9,0L580,521.7c74-9.5,145.9-10.6,215,0L768.3,651z"/>
<path class="st1" d="M708.5,319.5c-13.6-13-26.7-12.3-39,0c-48,46.2-75.1,118-89,203.2c78.3-10.1,150.9-11.4,215,0
	C788.1,449.4,760.2,381.4,708.5,319.5z"/>
<g>
	<g>
		<ellipse class="st1" cx="747.8" cy="544.4" rx="23.4" ry="22.5"/>
		<ellipse class="st0" cx="747.8" cy="551.8" rx="23.4" ry="22.5"/>
		<ellipse cx="747.4" cy="552.2" rx="16.1" ry="15.5"/>
	</g>
	<g>
		<ellipse class="st1" cx="688.8" cy="544.4" rx="23.4" ry="22.5"/>
		<ellipse class="st0" cx="688.8" cy="551.8" rx="23.4" ry="22.5"/>
		<ellipse cx="688.4" cy="552.2" rx="16.1" ry="15.5"/>
	</g>
	<g>
		<ellipse class="st1" cx="631.8" cy="544.4" rx="23.4" ry="22.5"/>
		<ellipse class="st0" cx="631.8" cy="551.8" rx="23.4" ry="22.5"/>
		<ellipse cx="631.4" cy="552.2" rx="16.1" ry="15.5"/>
	</g>
	<g>
		<ellipse class="st1" cx="747.8" cy="612.7" rx="23.4" ry="22.5"/>
		<ellipse class="st0" cx="747.8" cy="620" rx="23.4" ry="22.5"/>
		<ellipse cx="747.4" cy="620.4" rx="16.1" ry="15.5"/>
	</g>
	<g>
		<ellipse class="st1" cx="688.8" cy="612.7" rx="23.4" ry="22.5"/>
		<ellipse class="st0" cx="688.8" cy="620" rx="23.4" ry="22.5"/>
		<ellipse cx="688.4" cy="620.4" rx="16.1" ry="15.5"/>
	</g>
	<g>
		<ellipse class="st1" cx="631.8" cy="612.7" rx="23.4" ry="22.5"/>
		<ellipse class="st0" cx="631.8" cy="620" rx="23.4" ry="22.5"/>
		<ellipse cx="631.4" cy="620.4" rx="16.1" ry="15.5"/>
	</g>
</g>
<path class="st3" d="M689.4,345.1c-23.7,0-42.8,16.4-42.8,36.6c30.6-6.1,59.5-7.1,85.6,0C732.2,361.5,713.1,345.1,689.4,345.1z"/>
<path class="st4" d="M664.4,357.1c-2.2,1.7-4.3,3.7-6.1,6l13.2,7.5L664.4,357.1z"/>
<path class="st4" d="M697.4,350.1c8.2,3.3,12.8,10.5,12.3,17.9h8.3c0-10.2-9.6-18.4-21.5-18.4c-0.2,0-0.4,0-0.5,0
	C696.4,349.8,696.9,350,697.4,350.1z"/>
<path class="st0" d="M738,393.7c-29.3,5.4-62.5,4.5-98,0v-14c29.6-7.4,60.6-11.3,98,0V393.7z"/>
</svg>
