<?xml version="1.0" encoding="utf-8"?>
<!-- Generator: Adobe Illustrator 22.1.0, SVG Export Plug-In . SVG Version: 6.00 Build 0)  -->
<svg version="1.1" id="Lager_1" xmlns="http://www.w3.org/2000/svg" xmlns:xlink="http://www.w3.org/1999/xlink" x="0px" y="0px"
	 viewBox="0 0 1366 768" style="enable-background:new 0 0 1366 768;" xml:space="preserve">
<style type="text/css">
	.st0{fill:#447A41;}
	.st1{fill:#6BBA65;}
	.st2{stroke:#020000;stroke-miterlimit:10;}
	.st3{fill:#999999;}
	.st4{fill:#76ECFF;}
	.st5{fill:#F9FF12;}
	.st6{fill:#686868;}
	.st7{fill:#919191;}
	.st8{fill:#F90000;}
	.st9{fill:#A30000;}
</style>
<g>
	<g>
		<g>
			<ellipse class="st0" cx="942.6" cy="364.8" rx="40.7" ry="42.3"/>
		</g>
		<g>
			<ellipse class="st1" cx="943.3" cy="374.2" rx="40.7" ry="42.3"/>
		</g>
		<ellipse class="st2" cx="943.3" cy="374.2" rx="33.6" ry="35"/>
		<g>
			<circle class="st3" cx="943.1" cy="373.9" r="2.4"/>
			<ellipse class="st3" cx="926.5" cy="374.2" rx="12.9" ry="1.9"/>
			<ellipse class="st3" cx="959.4" cy="373.8" rx="12.9" ry="1.9"/>
			<ellipse class="st3" cx="943.1" cy="390.2" rx="1.9" ry="12.9"/>
			<ellipse class="st3" cx="942.5" cy="356.8" rx="1.9" ry="12.9"/>
			
				<ellipse transform="matrix(0.7071 -0.7071 0.7071 0.7071 7.336936e-02 771.0189)" class="st3" cx="930.7" cy="385.4" rx="12.9" ry="1.9"/>
			
				<ellipse transform="matrix(0.7071 -0.7071 0.7071 0.7071 24.0882 781.0446)" class="st3" cx="954.8" cy="361.4" rx="12.9" ry="1.9"/>
			
				<ellipse transform="matrix(0.7071 -0.7071 0.7071 0.7071 16.8048 764.5323)" class="st3" cx="931.3" cy="362" rx="1.9" ry="12.9"/>
			
				<ellipse transform="matrix(0.7071 -0.7071 0.7071 0.7071 6.8211 787.3092)" class="st3" cx="953.8" cy="385.4" rx="1.9" ry="12.9"/>
		</g>
	</g>
	<g>
		<g>
			<ellipse class="st0" cx="836.6" cy="377.8" rx="40.7" ry="42.3"/>
		</g>
		<g>
			<ellipse class="st1" cx="837.3" cy="387.2" rx="40.7" ry="42.3"/>
		</g>
		<ellipse class="st2" cx="837.3" cy="387.2" rx="33.6" ry="35"/>
		<g>
			<circle class="st3" cx="837.1" cy="386.9" r="2.4"/>
			<ellipse class="st3" cx="820.5" cy="387.2" rx="12.9" ry="1.9"/>
			<ellipse class="st3" cx="853.4" cy="386.8" rx="12.9" ry="1.9"/>
			<ellipse class="st3" cx="837.1" cy="403.2" rx="1.9" ry="12.9"/>
			<ellipse class="st3" cx="836.5" cy="369.8" rx="1.9" ry="12.9"/>
			
				<ellipse transform="matrix(0.7071 -0.7071 0.7071 0.7071 -40.1657 699.8731)" class="st3" cx="824.7" cy="398.4" rx="12.9" ry="1.9"/>
			
				<ellipse transform="matrix(0.7071 -0.7071 0.7071 0.7071 -16.1508 709.8989)" class="st3" cx="848.8" cy="374.4" rx="12.9" ry="1.9"/>
			
				<ellipse transform="matrix(0.7071 -0.7071 0.7071 0.7071 -23.4343 693.3866)" class="st3" cx="825.3" cy="375" rx="1.9" ry="12.9"/>
			
				<ellipse transform="matrix(0.7071 -0.7071 0.7071 0.7071 -33.418 716.1635)" class="st3" cx="847.8" cy="398.4" rx="1.9" ry="12.9"/>
		</g>
	</g>
	<g>
		<polygon class="st1" points="736,366.2 1080.5,316.3 1078.6,303.5 731.2,333.1 		"/>
	</g>
	<g>
		<polygon class="st0" points="731.2,333.1 1078.6,303.5 1078.6,303.5 726.5,299.9 		"/>
	</g>
</g>
<g>
	<g>
		<g>
			<ellipse class="st0" cx="463.3" cy="364.8" rx="40.7" ry="42.3"/>
		</g>
		<g>
			<ellipse class="st1" cx="462.7" cy="374.2" rx="40.7" ry="42.3"/>
		</g>
		<ellipse class="st2" cx="462.7" cy="374.2" rx="33.6" ry="35"/>
		<g>
			<circle class="st3" cx="462.9" cy="373.9" r="2.4"/>
			<ellipse class="st3" cx="479.5" cy="374.2" rx="12.9" ry="1.9"/>
			<ellipse class="st3" cx="446.5" cy="373.8" rx="12.9" ry="1.9"/>
			<ellipse class="st3" cx="462.9" cy="390.2" rx="1.9" ry="12.9"/>
			<ellipse class="st3" cx="463.4" cy="356.8" rx="1.9" ry="12.9"/>
			
				<ellipse transform="matrix(0.7071 -0.7071 0.7071 0.7071 -133.3541 448.8963)" class="st3" cx="475.2" cy="385.4" rx="1.9" ry="12.9"/>
			
				<ellipse transform="matrix(0.7071 -0.7071 0.7071 0.7071 -123.4623 424.826)" class="st3" cx="451.1" cy="361.4" rx="1.9" ry="12.9"/>
			
				<ellipse transform="matrix(0.7071 -0.7071 0.7071 0.7071 -116.9366 441.6521)" class="st3" cx="474.7" cy="362" rx="12.9" ry="1.9"/>
			
				<ellipse transform="matrix(0.7071 -0.7071 0.7071 0.7071 -140.1018 432.606)" class="st3" cx="452.2" cy="385.4" rx="12.9" ry="1.9"/>
		</g>
	</g>
	<g>
		<g>
			<ellipse class="st0" cx="569.3" cy="377.8" rx="40.7" ry="42.3"/>
		</g>
		<g>
			<ellipse class="st1" cx="568.7" cy="387.2" rx="40.7" ry="42.3"/>
		</g>
		<ellipse class="st2" cx="568.7" cy="387.2" rx="33.6" ry="35"/>
		<g>
			<circle class="st3" cx="568.9" cy="386.9" r="2.4"/>
			<ellipse class="st3" cx="585.5" cy="387.2" rx="12.9" ry="1.9"/>
			<ellipse class="st3" cx="552.5" cy="386.8" rx="12.9" ry="1.9"/>
			<ellipse class="st3" cx="568.9" cy="403.2" rx="1.9" ry="12.9"/>
			<ellipse class="st3" cx="569.4" cy="369.8" rx="1.9" ry="12.9"/>
			
				<ellipse transform="matrix(0.7071 -0.7071 0.7071 0.7071 -111.4998 527.6573)" class="st3" cx="581.2" cy="398.4" rx="1.9" ry="12.9"/>
			
				<ellipse transform="matrix(0.7071 -0.7071 0.7071 0.7071 -101.608 503.5869)" class="st3" cx="557.1" cy="374.4" rx="1.9" ry="12.9"/>
			
				<ellipse transform="matrix(0.7071 -0.7071 0.7071 0.7071 -95.0823 520.413)" class="st3" cx="580.7" cy="375" rx="12.9" ry="1.9"/>
			
				<ellipse transform="matrix(0.7071 -0.7071 0.7071 0.7071 -118.2475 511.3669)" class="st3" cx="558.2" cy="398.4" rx="12.9" ry="1.9"/>
		</g>
	</g>
	<g>
		<polygon class="st1" points="669.9,366.2 325.5,316.3 327.3,303.5 674.7,333.1 		"/>
	</g>
	<g>
		<polygon class="st0" points="674.7,333.1 327.3,303.5 327.3,303.5 679.5,299.9 		"/>
	</g>
</g>
<g>
	<polygon class="st1" points="714.5,236.3 859,215.4 858.2,210 712.5,222.4 	"/>
</g>
<g>
	<polygon class="st1" points="691.4,237.3 546.9,216.4 547.7,211 693.5,223.4 	"/>
</g>
<g>
	<g>
		<path class="st0" d="M768,382c-5.5-22.1-37.5-170.6-59-177c-4.5-1.3-4.6-1.4-6-1.2v303.1c42.5-2.5,72-37.4,72-82.8
			C775,409.5,772,398,768,382z"/>
	</g>
	<g>
		<g>
			<path class="st0" d="M638,382c5.5-22.1,37.5-170.6,59-177c4.5-1.3,4.6-1.4,6-1.2v303.1c-42.5-2.5-72-37.4-72-82.8
				C631,409.5,634,398,638,382z"/>
		</g>
	</g>
</g>
<g>
	<path class="st1" d="M703,453.3c-31.3,0-58-21.7-67.9-51.9c-2.7,8.1-4.1,16.9-4.1,26c0,43,32.2,77.9,72,77.9s72-34.9,72-77.9
		c0-9.1-1.5-17.9-4.1-26C761,431.7,734.3,453.3,703,453.3z"/>
</g>
<g>
	<polygon class="st0" points="712.5,222.4 858.2,210 858.2,210 710.5,208.5 	"/>
</g>
<g>
	<polygon class="st0" points="693.5,223.4 547.7,211 547.7,211 695.5,209.5 	"/>
</g>
<g>
	<rect x="695.4" y="110" class="st1" width="15.3" height="112"/>
</g>
<g>
	<g>
		<path class="st4" d="M735,362.6c-3,19.2-59,19.2-64,0l8-63.9c5-17,44-17.8,48,0L735,362.6z"/>
	</g>
	<g>
		<path class="st5" d="M734.8,361.4l0.2-1.5c-5-19.2-61-19.2-64,0l0.2,1.3C675.6,343,728.9,343.1,734.8,361.4z"/>
	</g>
	<g>
		<path class="st5" d="M730.8,334.8l0.2-1.3c-4.4-16.8-53.4-16.8-56,0l0.1,1.2C679,318.7,725.6,318.8,730.8,334.8z"/>
	</g>
	<g>
		<path class="st5" d="M726.9,300.9l0.1-1.2c-3.8-15.6-45.8-15.6-48,0l0.1,1.1C682.4,286,722.4,286.1,726.9,300.9z"/>
	</g>
	<g>
		<path class="st5" d="M729.8,317l0.2-1.3c-4.1-16.8-50.5-16.8-53,0l0.1,1.2C680.8,301,724.9,301,729.8,317z"/>
	</g>
</g>
<g>
	<circle class="st6" cx="648.2" cy="476.2" r="22.6"/>
	<circle class="st7" cx="648.3" cy="482.9" r="22.6"/>
	<ellipse class="st6" cx="648" cy="487.2" rx="13.6" ry="15.1"/>
	<ellipse class="st7" cx="648" cy="493.9" rx="13.6" ry="15.1"/>
	<ellipse cx="648" cy="493.9" rx="9.8" ry="10.9"/>
</g>
<g>
	<circle class="st6" cx="758.2" cy="476.2" r="22.6"/>
	<circle class="st7" cx="758.3" cy="482.9" r="22.6"/>
	<ellipse class="st6" cx="758" cy="487.2" rx="13.6" ry="15.1"/>
	<ellipse class="st7" cx="758" cy="493.9" rx="13.6" ry="15.1"/>
	<ellipse cx="758" cy="493.9" rx="9.8" ry="10.9"/>
</g>
<g>
	<ellipse class="st8" cx="703" cy="472.3" rx="19.4" ry="20.3"/>
</g>
<g>
	<path class="st9" d="M703,459c9.6,0,17.5,7.3,19.1,16.8c0.2-1.1,0.3-2.3,0.3-3.5c0-11.2-8.7-20.3-19.4-20.3s-19.4,9.1-19.4,20.3
		c0,1.2,0.1,2.4,0.3,3.5C685.5,466.3,693.4,459,703,459z"/>
</g>
</svg>
