<?xml version="1.0" encoding="utf-8"?>
<!-- Generator: Adobe Illustrator 22.1.0, SVG Export Plug-In . SVG Version: 6.00 Build 0)  -->
<svg version="1.1" id="Lager_1" xmlns="http://www.w3.org/2000/svg" xmlns:xlink="http://www.w3.org/1999/xlink" x="0px" y="0px"
	 viewBox="0 0 1366 768" style="enable-background:new 0 0 1366 768;" xml:space="preserve">
<style type="text/css">
	.st0{fill:#443019;}
	.st1{fill:#F5F962;}
	.st2{fill:#A06E3D;}
	.st3{fill:#724E2E;}
	.st4{fill:#AA7B3D;}
	.st5{fill:url(#SVGID_1_);}
	.st6{fill:url(#SVGID_2_);}
	.st7{fill:url(#SVGID_3_);}
	.st8{fill:url(#SVGID_4_);}
	.st9{fill:url(#SVGID_5_);}
	.st10{fill:url(#SVGID_6_);}
	.st11{fill:url(#SVGID_7_);}
	.st12{fill:url(#SVGID_8_);}
	.st13{fill:url(#SVGID_9_);}
	.st14{fill:url(#SVGID_10_);}
	.st15{fill:url(#SVGID_11_);}
	.st16{fill:none;stroke:url(#SVGID_12_);stroke-width:2;stroke-miterlimit:10;}
	.st17{fill:none;stroke:url(#SVGID_13_);stroke-width:2;stroke-miterlimit:10;}
	.st18{fill:none;stroke:url(#SVGID_14_);stroke-width:2;stroke-miterlimit:10;}
	.st19{fill:none;stroke:url(#SVGID_15_);stroke-width:2;stroke-miterlimit:10;}
	.st20{fill:none;stroke:url(#SVGID_16_);stroke-width:2;stroke-miterlimit:10;}
	.st21{fill:none;stroke:url(#SVGID_17_);stroke-width:2;stroke-miterlimit:10;}
</style>
<polygon class="st0" points="699.5,597.3 538.5,598 511,502.8 727,502.8 "/>
<g>
	<rect x="565" y="525" class="st1" width="37.5" height="37"/>
	<polygon class="st2" points="603,562 565,562 573,553.5 595,553.5 	"/>
	<polygon class="st3" points="574.5,525 574.5,553.6 565,562 565,525 	"/>
	<polygon class="st3" points="593.5,525 593.5,553.6 603,562 603,525 	"/>
</g>
<g>
	<rect x="638" y="524" class="st1" width="37.5" height="37"/>
	<polygon class="st2" points="676,561 638,561 646,552.5 668,552.5 	"/>
	<polygon class="st3" points="647.5,524 647.5,552.6 638,561 638,524 	"/>
	<polygon class="st3" points="666.5,524 666.5,552.6 676,561 676,524 	"/>
</g>
<g>
	<g>
		<g>
			<ellipse class="st4" cx="620.3" cy="331.5" rx="187.1" ry="208.5"/>
			<linearGradient id="SVGID_1_" gradientUnits="userSpaceOnUse" x1="620.262" y1="540" x2="620.262" y2="123">
				<stop  offset="1.282051e-02" style="stop-color:#000000"/>
				<stop  offset="4.766960e-02" style="stop-color:#161606"/>
				<stop  offset="0.1203" style="stop-color:#4F4F17"/>
				<stop  offset="0.2237" style="stop-color:#A9A932"/>
				<stop  offset="0.2769" style="stop-color:#DADA40"/>
				<stop  offset="0.2909" style="stop-color:#C6C63A"/>
				<stop  offset="0.3233" style="stop-color:#9D9D2E"/>
				<stop  offset="0.3597" style="stop-color:#777723"/>
				<stop  offset="0.3993" style="stop-color:#575719"/>
				<stop  offset="0.4431" style="stop-color:#3B3B11"/>
				<stop  offset="0.4926" style="stop-color:#25250B"/>
				<stop  offset="0.5503" style="stop-color:#141406"/>
				<stop  offset="0.6218" style="stop-color:#090903"/>
				<stop  offset="0.7219" style="stop-color:#020201"/>
				<stop  offset="1" style="stop-color:#000000"/>
			</linearGradient>
			<path class="st5" d="M620.3,125c25,0,49.2,5.4,72,16.2c22,10.4,41.8,25.3,58.8,44.2c17,19,30.4,41.1,39.7,65.6
				c9.7,25.5,14.6,52.5,14.6,80.4s-4.9,55-14.6,80.4c-9.3,24.6-22.7,46.7-39.7,65.6c-17,18.9-36.8,33.8-58.8,44.2
				c-22.8,10.7-47,16.2-72,16.2s-49.2-5.4-72-16.2c-22-10.4-41.8-25.3-58.8-44.2c-17-19-30.4-41.1-39.7-65.6
				c-9.7-25.5-14.6-52.5-14.6-80.4s4.9-55,14.6-80.4c9.3-24.6,22.7-46.7,39.7-65.6c17-18.9,36.8-33.8,58.8-44.2
				C571.1,130.4,595.3,125,620.3,125 M620.3,123c-103.3,0-187.1,93.3-187.1,208.5S516.9,540,620.3,540s187.1-93.3,187.1-208.5
				S723.6,123,620.3,123L620.3,123z"/>
		</g>
		<g>
			<ellipse class="st4" cx="620.5" cy="373.5" rx="139.5" ry="155.5"/>
			<linearGradient id="SVGID_2_" gradientUnits="userSpaceOnUse" x1="620.5173" y1="529" x2="620.5173" y2="218">
				<stop  offset="1.282051e-02" style="stop-color:#000000"/>
				<stop  offset="4.766960e-02" style="stop-color:#161606"/>
				<stop  offset="0.1203" style="stop-color:#4F4F17"/>
				<stop  offset="0.2237" style="stop-color:#A9A932"/>
				<stop  offset="0.2769" style="stop-color:#DADA40"/>
				<stop  offset="0.2909" style="stop-color:#C6C63A"/>
				<stop  offset="0.3233" style="stop-color:#9D9D2E"/>
				<stop  offset="0.3597" style="stop-color:#777723"/>
				<stop  offset="0.3993" style="stop-color:#575719"/>
				<stop  offset="0.4431" style="stop-color:#3B3B11"/>
				<stop  offset="0.4926" style="stop-color:#25250B"/>
				<stop  offset="0.5503" style="stop-color:#141406"/>
				<stop  offset="0.6218" style="stop-color:#090903"/>
				<stop  offset="0.7219" style="stop-color:#020201"/>
				<stop  offset="1" style="stop-color:#000000"/>
			</linearGradient>
			<path class="st6" d="M620.5,220c36.7,0,71.2,15.9,97.2,44.9c26,29,40.4,67.6,40.4,108.6s-14.3,79.6-40.4,108.6
				c-26,28.9-60.5,44.9-97.2,44.9s-71.2-15.9-97.2-44.9c-26-29-40.4-67.6-40.4-108.6s14.3-79.6,40.4-108.6
				C549.3,235.9,583.8,220,620.5,220 M620.5,218C543.5,218,481,287.6,481,373.5S543.5,529,620.5,529S760,459.4,760,373.5
				S697.6,218,620.5,218L620.5,218z"/>
		</g>
		<g>
			<ellipse class="st4" cx="620.6" cy="412.5" rx="97.4" ry="108.6"/>
			<linearGradient id="SVGID_3_" gradientUnits="userSpaceOnUse" x1="620.5535" y1="521.1122" x2="620.5535" y2="303.8878">
				<stop  offset="1.282051e-02" style="stop-color:#000000"/>
				<stop  offset="4.766960e-02" style="stop-color:#161606"/>
				<stop  offset="0.1203" style="stop-color:#4F4F17"/>
				<stop  offset="0.2237" style="stop-color:#A9A932"/>
				<stop  offset="0.2769" style="stop-color:#DADA40"/>
				<stop  offset="0.2909" style="stop-color:#C6C63A"/>
				<stop  offset="0.3233" style="stop-color:#9D9D2E"/>
				<stop  offset="0.3597" style="stop-color:#777723"/>
				<stop  offset="0.3993" style="stop-color:#575719"/>
				<stop  offset="0.4431" style="stop-color:#3B3B11"/>
				<stop  offset="0.4926" style="stop-color:#25250B"/>
				<stop  offset="0.5503" style="stop-color:#141406"/>
				<stop  offset="0.6218" style="stop-color:#090903"/>
				<stop  offset="0.7219" style="stop-color:#020201"/>
				<stop  offset="1" style="stop-color:#000000"/>
			</linearGradient>
			<path class="st7" d="M620.6,305.9c52.6,0,95.4,47.8,95.4,106.6s-42.8,106.6-95.4,106.6s-95.4-47.8-95.4-106.6
				S567.9,305.9,620.6,305.9 M620.6,303.9c-53.8,0-97.4,48.6-97.4,108.6s43.6,108.6,97.4,108.6c53.8,0,97.4-48.6,97.4-108.6
				S674.4,303.9,620.6,303.9L620.6,303.9z"/>
		</g>
		<g>
			<ellipse class="st4" cx="620.6" cy="430.5" rx="72.2" ry="80.5"/>
			<linearGradient id="SVGID_4_" gradientUnits="userSpaceOnUse" x1="620.5535" y1="511" x2="620.5535" y2="350">
				<stop  offset="1.282051e-02" style="stop-color:#000000"/>
				<stop  offset="4.766960e-02" style="stop-color:#161606"/>
				<stop  offset="0.1203" style="stop-color:#4F4F17"/>
				<stop  offset="0.2237" style="stop-color:#A9A932"/>
				<stop  offset="0.2769" style="stop-color:#DADA40"/>
				<stop  offset="0.2909" style="stop-color:#C6C63A"/>
				<stop  offset="0.3233" style="stop-color:#9D9D2E"/>
				<stop  offset="0.3597" style="stop-color:#777723"/>
				<stop  offset="0.3993" style="stop-color:#575719"/>
				<stop  offset="0.4431" style="stop-color:#3B3B11"/>
				<stop  offset="0.4926" style="stop-color:#25250B"/>
				<stop  offset="0.5503" style="stop-color:#141406"/>
				<stop  offset="0.6218" style="stop-color:#090903"/>
				<stop  offset="0.7219" style="stop-color:#020201"/>
				<stop  offset="1" style="stop-color:#000000"/>
			</linearGradient>
			<path class="st8" d="M620.6,352c38.7,0,70.2,35.2,70.2,78.5S659.3,509,620.6,509s-70.2-35.2-70.2-78.5S581.8,352,620.6,352
				 M620.6,350c-39.9,0-72.2,36-72.2,80.5s32.3,80.5,72.2,80.5c39.9,0,72.2-36,72.2-80.5S660.4,350,620.6,350L620.6,350z"/>
		</g>
		<g>
			<ellipse class="st4" cx="620.6" cy="449.5" rx="47.1" ry="52.5"/>
			<linearGradient id="SVGID_5_" gradientUnits="userSpaceOnUse" x1="620.5535" y1="502" x2="620.5535" y2="397">
				<stop  offset="1.282051e-02" style="stop-color:#000000"/>
				<stop  offset="4.766960e-02" style="stop-color:#161606"/>
				<stop  offset="0.1203" style="stop-color:#4F4F17"/>
				<stop  offset="0.2237" style="stop-color:#A9A932"/>
				<stop  offset="0.2769" style="stop-color:#DADA40"/>
				<stop  offset="0.2909" style="stop-color:#C6C63A"/>
				<stop  offset="0.3233" style="stop-color:#9D9D2E"/>
				<stop  offset="0.3597" style="stop-color:#777723"/>
				<stop  offset="0.3993" style="stop-color:#575719"/>
				<stop  offset="0.4431" style="stop-color:#3B3B11"/>
				<stop  offset="0.4926" style="stop-color:#25250B"/>
				<stop  offset="0.5503" style="stop-color:#141406"/>
				<stop  offset="0.6218" style="stop-color:#090903"/>
				<stop  offset="0.7219" style="stop-color:#020201"/>
				<stop  offset="1" style="stop-color:#000000"/>
			</linearGradient>
			<path class="st9" d="M620.6,399c24.9,0,45.1,22.7,45.1,50.5S645.4,500,620.6,500c-24.9,0-45.1-22.7-45.1-50.5
				S595.7,399,620.6,399 M620.6,397c-26,0-47.1,23.5-47.1,52.5s21.1,52.5,47.1,52.5s47.1-23.5,47.1-52.5S646.6,397,620.6,397
				L620.6,397z"/>
		</g>
	</g>
	<g>
		<linearGradient id="SVGID_6_" gradientUnits="userSpaceOnUse" x1="620.5535" y1="471" x2="620.5535" y2="123">
			<stop  offset="1.282051e-02" style="stop-color:#000000"/>
			<stop  offset="4.766960e-02" style="stop-color:#161606"/>
			<stop  offset="0.1203" style="stop-color:#4F4F17"/>
			<stop  offset="0.2237" style="stop-color:#A9A932"/>
			<stop  offset="0.2769" style="stop-color:#DADA40"/>
			<stop  offset="0.2909" style="stop-color:#C6C63A"/>
			<stop  offset="0.3233" style="stop-color:#9D9D2E"/>
			<stop  offset="0.3597" style="stop-color:#777723"/>
			<stop  offset="0.3993" style="stop-color:#575719"/>
			<stop  offset="0.4431" style="stop-color:#3B3B11"/>
			<stop  offset="0.4926" style="stop-color:#25250B"/>
			<stop  offset="0.5503" style="stop-color:#141406"/>
			<stop  offset="0.6218" style="stop-color:#090903"/>
			<stop  offset="0.7219" style="stop-color:#020201"/>
			<stop  offset="1" style="stop-color:#000000"/>
		</linearGradient>
		<path class="st10" d="M620.6,125c9.2,0,18.2,4.4,26.7,13.1c8.4,8.6,16,20.9,22.5,36.7c13.5,32.6,21,76,21,122.3
			s-7.5,89.6-21,122.3c-6.5,15.7-14.1,28.1-22.5,36.7c-8.5,8.7-17.5,13.1-26.7,13.1s-18.2-4.4-26.7-13.1c-8.4-8.6-16-20.9-22.5-36.7
			c-13.5-32.6-21-76-21-122.3s7.5-89.6,21-122.3c6.5-15.7,14.1-28.1,22.5-36.7C602.4,129.4,611.4,125,620.6,125 M620.6,123
			c-39.9,0-72.2,77.9-72.2,174s32.3,174,72.2,174c39.9,0,72.2-77.9,72.2-174S660.4,123,620.6,123L620.6,123z"/>
	</g>
	<g>
		<linearGradient id="SVGID_7_" gradientUnits="userSpaceOnUse" x1="620.1646" y1="471" x2="620.1646" y2="123">
			<stop  offset="1.282051e-02" style="stop-color:#000000"/>
			<stop  offset="4.766960e-02" style="stop-color:#161606"/>
			<stop  offset="0.1203" style="stop-color:#4F4F17"/>
			<stop  offset="0.2237" style="stop-color:#A9A932"/>
			<stop  offset="0.2769" style="stop-color:#DADA40"/>
			<stop  offset="0.2909" style="stop-color:#C6C63A"/>
			<stop  offset="0.3233" style="stop-color:#9D9D2E"/>
			<stop  offset="0.3597" style="stop-color:#777723"/>
			<stop  offset="0.3993" style="stop-color:#575719"/>
			<stop  offset="0.4431" style="stop-color:#3B3B11"/>
			<stop  offset="0.4926" style="stop-color:#25250B"/>
			<stop  offset="0.5503" style="stop-color:#141406"/>
			<stop  offset="0.6218" style="stop-color:#090903"/>
			<stop  offset="0.7219" style="stop-color:#020201"/>
			<stop  offset="1" style="stop-color:#000000"/>
		</linearGradient>
		<path class="st11" d="M620.2,125c59.5,0,107.8,77.2,107.8,172s-48.4,172-107.8,172s-107.8-77.2-107.8-172S560.7,125,620.2,125
			 M620.2,123c-60.7,0-109.8,77.9-109.8,174s49.2,174,109.8,174S730,393.1,730,297S680.8,123,620.2,123L620.2,123z"/>
	</g>
	<g>
		<linearGradient id="SVGID_8_" gradientUnits="userSpaceOnUse" x1="620.1646" y1="471" x2="620.1646" y2="123">
			<stop  offset="1.282051e-02" style="stop-color:#000000"/>
			<stop  offset="4.766960e-02" style="stop-color:#161606"/>
			<stop  offset="0.1203" style="stop-color:#4F4F17"/>
			<stop  offset="0.2237" style="stop-color:#A9A932"/>
			<stop  offset="0.2769" style="stop-color:#DADA40"/>
			<stop  offset="0.2909" style="stop-color:#C6C63A"/>
			<stop  offset="0.3233" style="stop-color:#9D9D2E"/>
			<stop  offset="0.3597" style="stop-color:#777723"/>
			<stop  offset="0.3993" style="stop-color:#575719"/>
			<stop  offset="0.4431" style="stop-color:#3B3B11"/>
			<stop  offset="0.4926" style="stop-color:#25250B"/>
			<stop  offset="0.5503" style="stop-color:#141406"/>
			<stop  offset="0.6218" style="stop-color:#090903"/>
			<stop  offset="0.7219" style="stop-color:#020201"/>
			<stop  offset="1" style="stop-color:#000000"/>
		</linearGradient>
		<path class="st12" d="M620.2,125c36.7,0,71.3,17.8,97.3,50.2C743.6,207.7,758,251,758,297s-14.4,89.3-40.5,121.8
			c-26,32.4-60.6,50.2-97.3,50.2s-71.3-17.8-97.3-50.2c-26.1-32.5-40.5-75.8-40.5-121.8s14.4-89.3,40.5-121.8
			C548.9,142.8,583.4,125,620.2,125 M620.2,123c-77.2,0-139.8,77.9-139.8,174s62.6,174,139.8,174S760,393.1,760,297
			S697.4,123,620.2,123L620.2,123z"/>
	</g>
	<g>
		<linearGradient id="SVGID_9_" gradientUnits="userSpaceOnUse" x1="620.4571" y1="470.5459" x2="620.4571" y2="122.8577">
			<stop  offset="1.282051e-02" style="stop-color:#000000"/>
			<stop  offset="4.766960e-02" style="stop-color:#161606"/>
			<stop  offset="0.1203" style="stop-color:#4F4F17"/>
			<stop  offset="0.2237" style="stop-color:#A9A932"/>
			<stop  offset="0.2769" style="stop-color:#DADA40"/>
			<stop  offset="0.2909" style="stop-color:#C6C63A"/>
			<stop  offset="0.3233" style="stop-color:#9D9D2E"/>
			<stop  offset="0.3597" style="stop-color:#777723"/>
			<stop  offset="0.3993" style="stop-color:#575719"/>
			<stop  offset="0.4431" style="stop-color:#3B3B11"/>
			<stop  offset="0.4926" style="stop-color:#25250B"/>
			<stop  offset="0.5503" style="stop-color:#141406"/>
			<stop  offset="0.6218" style="stop-color:#090903"/>
			<stop  offset="0.7219" style="stop-color:#020201"/>
			<stop  offset="1" style="stop-color:#000000"/>
		</linearGradient>
		<path class="st13" d="M614,122.9v2c2.1,0,4.3,0,6.4,0.1c23.6,1,46.7,6.5,68.4,16.2c20.9,9.3,39.7,22.2,55.9,38.2
			c16.1,15.9,28.8,34,37.6,53.9c9.1,20.5,13.8,41.9,13.7,63.5c-0.1,45.9-18.3,89-51.4,121.4c-33.1,32.5-77.2,50.3-124.1,50.3
			c-48.7,0-95.9-19.8-129.3-54.4c-31.2-32.2-47.6-73.9-46.2-117.3c1.4-42.9,20.1-86.2,51.5-119.1c15.7-16.4,33.5-29.4,53.2-38.5
			c20.7-9.6,42.3-14.5,64.3-14.5L614,122.9 M614,122.9c-92.2,0-168.1,84.8-171,173.9c-3.1,95.9,79.5,173.8,177.5,173.8
			S797.9,392.7,798,296.8c0.1-89.4-79.4-169.5-177.5-173.8C618.3,122.9,616.1,122.9,614,122.9L614,122.9z"/>
	</g>
	<g>
		<linearGradient id="SVGID_10_" gradientUnits="userSpaceOnUse" x1="620.4363" y1="471.4572" x2="620.4363" y2="146">
			<stop  offset="1.282051e-02" style="stop-color:#000000"/>
			<stop  offset="4.766960e-02" style="stop-color:#161606"/>
			<stop  offset="0.1203" style="stop-color:#4F4F17"/>
			<stop  offset="0.2237" style="stop-color:#A9A932"/>
			<stop  offset="0.2769" style="stop-color:#DADA40"/>
			<stop  offset="0.2909" style="stop-color:#C6C63A"/>
			<stop  offset="0.3233" style="stop-color:#9D9D2E"/>
			<stop  offset="0.3597" style="stop-color:#777723"/>
			<stop  offset="0.3993" style="stop-color:#575719"/>
			<stop  offset="0.4431" style="stop-color:#3B3B11"/>
			<stop  offset="0.4926" style="stop-color:#25250B"/>
			<stop  offset="0.5503" style="stop-color:#141406"/>
			<stop  offset="0.6218" style="stop-color:#090903"/>
			<stop  offset="0.7219" style="stop-color:#020201"/>
			<stop  offset="1" style="stop-color:#000000"/>
		</linearGradient>
		<path class="st14" d="M620.5,148c49.8,0,93.5,15.3,126.4,44.2c32.6,28.6,52.7,68.9,58.1,116.4c0.8,70.4-14.8,113.6-49.1,136
			c-31,20.3-75.1,22-121.7,23.8c-4.6,0.2-9.2,0.3-13.8,0.5c-9.3,0.4-18.1,0.6-26.2,0.6c-61.3,0-99.6-11.2-124.1-36.4
			c-12.1-12.5-20.8-28.3-26.5-48.3c-5.9-21-8.4-45.9-7.6-76.2c1.2-43.1,20.7-83.4,54.9-113.4C525.4,164.7,571.4,148,620.5,148
			 M620.5,146c-103,0-184,72.7-186.5,162.4c-3.6,132.2,56.8,163,160.2,163c8.5,0,17.3-0.2,26.3-0.6c101.3-4.2,188.3,0.3,186.5-162.4
			C796,211,723.5,146,620.5,146L620.5,146z"/>
	</g>
	<g>
		<linearGradient id="SVGID_11_" gradientUnits="userSpaceOnUse" x1="620.5" y1="470" x2="620.5" y2="123">
			<stop  offset="1.282051e-02" style="stop-color:#000000"/>
			<stop  offset="4.766960e-02" style="stop-color:#161606"/>
			<stop  offset="0.1203" style="stop-color:#4F4F17"/>
			<stop  offset="0.2237" style="stop-color:#A9A932"/>
			<stop  offset="0.2769" style="stop-color:#DADA40"/>
			<stop  offset="0.2909" style="stop-color:#C6C63A"/>
			<stop  offset="0.3233" style="stop-color:#9D9D2E"/>
			<stop  offset="0.3597" style="stop-color:#777723"/>
			<stop  offset="0.3993" style="stop-color:#575719"/>
			<stop  offset="0.4431" style="stop-color:#3B3B11"/>
			<stop  offset="0.4926" style="stop-color:#25250B"/>
			<stop  offset="0.5503" style="stop-color:#141406"/>
			<stop  offset="0.6218" style="stop-color:#090903"/>
			<stop  offset="0.7219" style="stop-color:#020201"/>
			<stop  offset="1" style="stop-color:#000000"/>
		</linearGradient>
		<path class="st15" d="M620.5,125c0.1,0,6.8,0.6,12.5,49.1c3.9,32.7,6,76.2,6,122.4s-2.1,89.8-6,122.4
			c-5.7,48.5-12.4,49.1-12.5,49.1s-6.8-0.6-12.5-49.1c-3.9-32.7-6-76.2-6-122.4s2.1-89.8,6-122.4C613.7,125.6,620.4,125,620.5,125
			 M620.5,123c-11.3,0-20.5,77.7-20.5,173.5S609.2,470,620.5,470S641,392.3,641,296.5S631.8,123,620.5,123L620.5,123z"/>
	</g>
	<g>
		<linearGradient id="SVGID_12_" gradientUnits="userSpaceOnUse" x1="620.5243" y1="481.2818" x2="620.5243" y2="469.0607">
			<stop  offset="1.282051e-02" style="stop-color:#000000"/>
			<stop  offset="4.766960e-02" style="stop-color:#161606"/>
			<stop  offset="0.1203" style="stop-color:#4F4F17"/>
			<stop  offset="0.2237" style="stop-color:#A9A932"/>
			<stop  offset="0.2769" style="stop-color:#DADA40"/>
			<stop  offset="0.2909" style="stop-color:#C6C63A"/>
			<stop  offset="0.3233" style="stop-color:#9D9D2E"/>
			<stop  offset="0.3597" style="stop-color:#777723"/>
			<stop  offset="0.3993" style="stop-color:#575719"/>
			<stop  offset="0.4431" style="stop-color:#3B3B11"/>
			<stop  offset="0.4926" style="stop-color:#25250B"/>
			<stop  offset="0.5503" style="stop-color:#141406"/>
			<stop  offset="0.6218" style="stop-color:#090903"/>
			<stop  offset="0.7219" style="stop-color:#020201"/>
			<stop  offset="1" style="stop-color:#000000"/>
		</linearGradient>
		<path class="st16" d="M484.1,470c37.3,13.6,89.3,12.6,136.3,0.2c0.5-0.1,0.8,0.2,1.1,0.3c46,14.2,95.7,11.9,135.5,0"/>
	</g>
	<g>
		<linearGradient id="SVGID_13_" gradientUnits="userSpaceOnUse" x1="619.9112" y1="497.0649" x2="619.9112" y2="469.1249">
			<stop  offset="1.282051e-02" style="stop-color:#000000"/>
			<stop  offset="4.766960e-02" style="stop-color:#161606"/>
			<stop  offset="0.1203" style="stop-color:#4F4F17"/>
			<stop  offset="0.2237" style="stop-color:#A9A932"/>
			<stop  offset="0.2769" style="stop-color:#DADA40"/>
			<stop  offset="0.2909" style="stop-color:#C6C63A"/>
			<stop  offset="0.3233" style="stop-color:#9D9D2E"/>
			<stop  offset="0.3597" style="stop-color:#777723"/>
			<stop  offset="0.3993" style="stop-color:#575719"/>
			<stop  offset="0.4431" style="stop-color:#3B3B11"/>
			<stop  offset="0.4926" style="stop-color:#25250B"/>
			<stop  offset="0.5503" style="stop-color:#141406"/>
			<stop  offset="0.6218" style="stop-color:#090903"/>
			<stop  offset="0.7219" style="stop-color:#020201"/>
			<stop  offset="1" style="stop-color:#000000"/>
		</linearGradient>
		<path class="st17" d="M503.5,493.5c27,9,98-8,116.9-23.3c0.4-0.3,0.8,0.1,1.1,0.3c19,13,65,31,115,24"/>
	</g>
	<g>
		<linearGradient id="SVGID_14_" gradientUnits="userSpaceOnUse" x1="617.4502" y1="519.5314" x2="617.4502" y2="469.0347">
			<stop  offset="1.282051e-02" style="stop-color:#000000"/>
			<stop  offset="4.766960e-02" style="stop-color:#161606"/>
			<stop  offset="0.1203" style="stop-color:#4F4F17"/>
			<stop  offset="0.2237" style="stop-color:#A9A932"/>
			<stop  offset="0.2769" style="stop-color:#DADA40"/>
			<stop  offset="0.2909" style="stop-color:#C6C63A"/>
			<stop  offset="0.3233" style="stop-color:#9D9D2E"/>
			<stop  offset="0.3597" style="stop-color:#777723"/>
			<stop  offset="0.3993" style="stop-color:#575719"/>
			<stop  offset="0.4431" style="stop-color:#3B3B11"/>
			<stop  offset="0.4926" style="stop-color:#25250B"/>
			<stop  offset="0.5503" style="stop-color:#141406"/>
			<stop  offset="0.6218" style="stop-color:#090903"/>
			<stop  offset="0.7219" style="stop-color:#020201"/>
			<stop  offset="1" style="stop-color:#000000"/>
		</linearGradient>
		<path class="st18" d="M532.5,515.5c32,4,80-24,88.9-45.3c0.2-0.5,1-0.1,1.1,0.3c10,26,39,49,80,48"/>
	</g>
	<g>
		<linearGradient id="SVGID_15_" gradientUnits="userSpaceOnUse" x1="618.6651" y1="530" x2="618.6651" y2="469.0347">
			<stop  offset="1.282051e-02" style="stop-color:#000000"/>
			<stop  offset="4.766960e-02" style="stop-color:#161606"/>
			<stop  offset="0.1203" style="stop-color:#4F4F17"/>
			<stop  offset="0.2237" style="stop-color:#A9A932"/>
			<stop  offset="0.2769" style="stop-color:#DADA40"/>
			<stop  offset="0.2909" style="stop-color:#C6C63A"/>
			<stop  offset="0.3233" style="stop-color:#9D9D2E"/>
			<stop  offset="0.3597" style="stop-color:#777723"/>
			<stop  offset="0.3993" style="stop-color:#575719"/>
			<stop  offset="0.4431" style="stop-color:#3B3B11"/>
			<stop  offset="0.4926" style="stop-color:#25250B"/>
			<stop  offset="0.5503" style="stop-color:#141406"/>
			<stop  offset="0.6218" style="stop-color:#090903"/>
			<stop  offset="0.7219" style="stop-color:#020201"/>
			<stop  offset="1" style="stop-color:#000000"/>
		</linearGradient>
		<path class="st19" d="M559.5,528.5c22.4,4.9,55.5-32.4,61.7-58.2c0.1-0.6,0.7-0.1,0.8,0.3c7,31.6,27.3,59.6,56,58.4"/>
	</g>
	<g>
		<linearGradient id="SVGID_16_" gradientUnits="userSpaceOnUse" x1="619.587" y1="538.4838" x2="619.587" y2="471.0347">
			<stop  offset="1.282051e-02" style="stop-color:#000000"/>
			<stop  offset="4.766960e-02" style="stop-color:#161606"/>
			<stop  offset="0.1203" style="stop-color:#4F4F17"/>
			<stop  offset="0.2237" style="stop-color:#A9A932"/>
			<stop  offset="0.2769" style="stop-color:#DADA40"/>
			<stop  offset="0.2909" style="stop-color:#C6C63A"/>
			<stop  offset="0.3233" style="stop-color:#9D9D2E"/>
			<stop  offset="0.3597" style="stop-color:#777723"/>
			<stop  offset="0.3993" style="stop-color:#575719"/>
			<stop  offset="0.4431" style="stop-color:#3B3B11"/>
			<stop  offset="0.4926" style="stop-color:#25250B"/>
			<stop  offset="0.5503" style="stop-color:#141406"/>
			<stop  offset="0.6218" style="stop-color:#090903"/>
			<stop  offset="0.7219" style="stop-color:#020201"/>
			<stop  offset="1" style="stop-color:#000000"/>
		</linearGradient>
		<path class="st20" d="M592.5,536.5c12,0.1,25.5-35.3,28.4-64.2c0.1-0.6,0.3-0.1,0.4,0.3c3.3,35.4,11.7,62.4,25.2,64.8"/>
	</g>
	<linearGradient id="SVGID_17_" gradientUnits="userSpaceOnUse" x1="620" y1="540.0145" x2="620" y2="470.9855">
		<stop  offset="1.282051e-02" style="stop-color:#000000"/>
		<stop  offset="4.766960e-02" style="stop-color:#161606"/>
		<stop  offset="0.1203" style="stop-color:#4F4F17"/>
		<stop  offset="0.2237" style="stop-color:#A9A932"/>
		<stop  offset="0.2769" style="stop-color:#DADA40"/>
		<stop  offset="0.2909" style="stop-color:#C6C63A"/>
		<stop  offset="0.3233" style="stop-color:#9D9D2E"/>
		<stop  offset="0.3597" style="stop-color:#777723"/>
		<stop  offset="0.3993" style="stop-color:#575719"/>
		<stop  offset="0.4431" style="stop-color:#3B3B11"/>
		<stop  offset="0.4926" style="stop-color:#25250B"/>
		<stop  offset="0.5503" style="stop-color:#141406"/>
		<stop  offset="0.6218" style="stop-color:#090903"/>
		<stop  offset="0.7219" style="stop-color:#020201"/>
		<stop  offset="1" style="stop-color:#000000"/>
	</linearGradient>
	<line class="st21" x1="619.5" y1="540" x2="620.5" y2="471"/>
</g>
</svg>
